<?xml version="1.0" encoding="utf-8" standalone="no"?>
<!DOCTYPE svg PUBLIC "-//W3C//DTD SVG 1.1//EN"
  "http://www.w3.org/Graphics/SVG/1.1/DTD/svg11.dtd">
<svg xmlns:xlink="http://www.w3.org/1999/xlink" width="316.985937pt" height="331.829933pt" viewBox="0 0 316.985937 331.829933" xmlns="http://www.w3.org/2000/svg" version="1.1">
 <metadata>
  <rdf:RDF xmlns:dc="http://purl.org/dc/elements/1.1/" xmlns:cc="http://creativecommons.org/ns#" xmlns:rdf="http://www.w3.org/1999/02/22-rdf-syntax-ns#">
   <cc:Work>
    <dc:type rdf:resource="http://purl.org/dc/dcmitype/StillImage"/>
    <dc:date>2024-11-14T10:06:01.280417</dc:date>
    <dc:format>image/svg+xml</dc:format>
    <dc:creator>
     <cc:Agent>
      <dc:title>Matplotlib v3.6.3, https://matplotlib.org/</dc:title>
     </cc:Agent>
    </dc:creator>
   </cc:Work>
  </rdf:RDF>
 </metadata>
 <defs>
  <style type="text/css">*{stroke-linejoin: round; stroke-linecap: butt}</style>
 </defs>
 <g id="figure_1">
  <g id="patch_1">
   <path d="M 0 331.829933 
L 316.985937 331.829933 
L 316.985937 0 
L 0 0 
z
" style="fill: #ffffff"/>
  </g>
  <g id="axes_1">
   <g id="patch_2">
    <path d="M 30.785938 284.842276 
L 309.785937 284.842276 
L 309.785937 7.642276 
L 30.785938 7.642276 
z
" style="fill: #ffffff"/>
   </g>
   <g id="patch_3">
    <path d="M 43.467756 284.842276 
L 79.701522 284.842276 
L 79.701522 84.566414 
L 43.467756 84.566414 
z
" clip-path="url(#pf69da6df8c)" style="fill: #1f77b4; stroke: #000000; stroke-linejoin: miter"/>
   </g>
   <g id="patch_4">
    <path d="M 79.701522 284.842276 
L 115.935288 284.842276 
L 115.935288 48.152621 
L 79.701522 48.152621 
z
" clip-path="url(#pf69da6df8c)" style="fill: #1f77b4; stroke: #000000; stroke-linejoin: miter"/>
   </g>
   <g id="patch_5">
    <path d="M 115.935288 284.842276 
L 152.169054 284.842276 
L 152.169054 20.842276 
L 115.935288 20.842276 
z
" clip-path="url(#pf69da6df8c)" style="fill: #1f77b4; stroke: #000000; stroke-linejoin: miter"/>
   </g>
   <g id="patch_6">
    <path d="M 152.169054 284.842276 
L 188.402821 284.842276 
L 188.402821 93.669863 
L 152.169054 93.669863 
z
" clip-path="url(#pf69da6df8c)" style="fill: #1f77b4; stroke: #000000; stroke-linejoin: miter"/>
   </g>
   <g id="patch_7">
    <path d="M 188.402821 284.842276 
L 224.636587 284.842276 
L 224.636587 166.497449 
L 188.402821 166.497449 
z
" clip-path="url(#pf69da6df8c)" style="fill: #1f77b4; stroke: #000000; stroke-linejoin: miter"/>
   </g>
   <g id="patch_8">
    <path d="M 224.636587 284.842276 
L 260.870353 284.842276 
L 260.870353 193.807794 
L 224.636587 193.807794 
z
" clip-path="url(#pf69da6df8c)" style="fill: #1f77b4; stroke: #000000; stroke-linejoin: miter"/>
   </g>
   <g id="patch_9">
    <path d="M 260.870353 284.842276 
L 297.104119 284.842276 
L 297.104119 248.428483 
L 260.870353 248.428483 
z
" clip-path="url(#pf69da6df8c)" style="fill: #1f77b4; stroke: #000000; stroke-linejoin: miter"/>
   </g>
   <g id="matplotlib.axis_1">
    <g id="xtick_1">
     <g id="line2d_1">
      <defs>
       <path id="m4d6ee20057" d="M 0 0 
L 0 8 
" style="stroke: #000000"/>
      </defs>
      <g>
       <use xlink:href="#m4d6ee20057" x="43.467756" y="284.842276" style="stroke: #000000"/>
      </g>
     </g>
     <g id="text_1">
      <!-- 1 -->
      <g transform="translate(40.446271 305.419933) scale(0.13 -0.13)">
       <defs>
        <path id="LinBiolinum-31" d="M 2088 1209 
Q 2088 494 2144 0 
L 2131 -19 
Q 1953 0 1825 0 
Q 1825 0 1528 -19 
L 1522 0 
Q 1572 416 1575 1209 
L 1575 2797 
Q 1575 3284 1459 3284 
Q 1388 3284 1125 3239 
Q 863 3194 728 3181 
L 691 3366 
Q 959 3450 1432 3648 
Q 1906 3847 2094 3903 
Q 2138 3903 2138 3872 
Q 2088 3513 2088 2834 
L 2088 1209 
z
" transform="scale(0.015625)"/>
       </defs>
       <use xlink:href="#LinBiolinum-31"/>
      </g>
     </g>
    </g>
    <g id="xtick_2">
     <g id="line2d_2">
      <g>
       <use xlink:href="#m4d6ee20057" x="128.01321" y="284.842276" style="stroke: #000000"/>
      </g>
     </g>
     <g id="text_2">
      <!-- 10 -->
      <g transform="translate(121.970241 305.419933) scale(0.13 -0.13)">
       <defs>
        <path id="LinBiolinum-30" d="M 1491 3653 
Q 800 3653 800 1838 
Q 800 1641 809 1450 
Q 819 1259 861 1017 
Q 903 775 973 601 
Q 1044 428 1169 306 
Q 1294 184 1466 184 
Q 1550 184 1636 217 
Q 1722 250 1847 394 
Q 1972 538 2034 781 
Q 2144 1178 2144 2028 
Q 2144 2638 2037 3028 
Q 1931 3419 1772 3553 
Q 1656 3653 1491 3653 
z
M 1459 -63 
Q 891 -63 570 484 
Q 250 1031 250 1850 
Q 250 2759 620 3331 
Q 991 3903 1491 3903 
Q 1856 3903 2100 3681 
Q 2694 3138 2694 1978 
Q 2694 1447 2572 1034 
Q 2450 622 2259 390 
Q 2069 159 1862 48 
Q 1656 -63 1459 -63 
z
" transform="scale(0.015625)"/>
       </defs>
       <use xlink:href="#LinBiolinum-31"/>
       <use xlink:href="#LinBiolinum-30" x="46.484375"/>
      </g>
     </g>
    </g>
    <g id="xtick_3">
     <g id="line2d_3">
      <g>
       <use xlink:href="#m4d6ee20057" x="212.558665" y="284.842276" style="stroke: #000000"/>
      </g>
     </g>
     <g id="text_3">
      <!-- 100 -->
      <g transform="translate(203.494212 305.419933) scale(0.13 -0.13)">
       <use xlink:href="#LinBiolinum-31"/>
       <use xlink:href="#LinBiolinum-30" x="46.484375"/>
       <use xlink:href="#LinBiolinum-30" x="92.96875"/>
      </g>
     </g>
    </g>
    <g id="xtick_4">
     <g id="line2d_4">
      <g>
       <use xlink:href="#m4d6ee20057" x="297.104119" y="284.842276" style="stroke: #000000"/>
      </g>
     </g>
     <g id="text_4">
      <!-- 1000 -->
      <g transform="translate(285.018182 305.419933) scale(0.13 -0.13)">
       <use xlink:href="#LinBiolinum-31"/>
       <use xlink:href="#LinBiolinum-30" x="46.484375"/>
       <use xlink:href="#LinBiolinum-30" x="92.96875"/>
       <use xlink:href="#LinBiolinum-30" x="139.453125"/>
      </g>
     </g>
    </g>
    <g id="xtick_5">
     <g id="line2d_5">
      <defs>
       <path id="m9db59d6e08" d="M 0 0 
L 0 4 
" style="stroke: #000000"/>
      </defs>
      <g>
       <use xlink:href="#m9db59d6e08" x="35.274455" y="284.842276" style="stroke: #000000"/>
      </g>
     </g>
    </g>
    <g id="xtick_6">
     <g id="line2d_6">
      <g>
       <use xlink:href="#m9db59d6e08" x="39.599168" y="284.842276" style="stroke: #000000"/>
      </g>
     </g>
    </g>
    <g id="xtick_7">
     <g id="line2d_7">
      <g>
       <use xlink:href="#m9db59d6e08" x="68.918473" y="284.842276" style="stroke: #000000"/>
      </g>
     </g>
    </g>
    <g id="xtick_8">
     <g id="line2d_8">
      <g>
       <use xlink:href="#m9db59d6e08" x="83.806189" y="284.842276" style="stroke: #000000"/>
      </g>
     </g>
    </g>
    <g id="xtick_9">
     <g id="line2d_9">
      <g>
       <use xlink:href="#m9db59d6e08" x="94.369191" y="284.842276" style="stroke: #000000"/>
      </g>
     </g>
    </g>
    <g id="xtick_10">
     <g id="line2d_10">
      <g>
       <use xlink:href="#m9db59d6e08" x="102.562492" y="284.842276" style="stroke: #000000"/>
      </g>
     </g>
    </g>
    <g id="xtick_11">
     <g id="line2d_11">
      <g>
       <use xlink:href="#m9db59d6e08" x="109.256907" y="284.842276" style="stroke: #000000"/>
      </g>
     </g>
    </g>
    <g id="xtick_12">
     <g id="line2d_12">
      <g>
       <use xlink:href="#m9db59d6e08" x="114.916954" y="284.842276" style="stroke: #000000"/>
      </g>
     </g>
    </g>
    <g id="xtick_13">
     <g id="line2d_13">
      <g>
       <use xlink:href="#m9db59d6e08" x="119.819909" y="284.842276" style="stroke: #000000"/>
      </g>
     </g>
    </g>
    <g id="xtick_14">
     <g id="line2d_14">
      <g>
       <use xlink:href="#m9db59d6e08" x="124.144622" y="284.842276" style="stroke: #000000"/>
      </g>
     </g>
    </g>
    <g id="xtick_15">
     <g id="line2d_15">
      <g>
       <use xlink:href="#m9db59d6e08" x="153.463928" y="284.842276" style="stroke: #000000"/>
      </g>
     </g>
    </g>
    <g id="xtick_16">
     <g id="line2d_16">
      <g>
       <use xlink:href="#m9db59d6e08" x="168.351644" y="284.842276" style="stroke: #000000"/>
      </g>
     </g>
    </g>
    <g id="xtick_17">
     <g id="line2d_17">
      <g>
       <use xlink:href="#m9db59d6e08" x="178.914646" y="284.842276" style="stroke: #000000"/>
      </g>
     </g>
    </g>
    <g id="xtick_18">
     <g id="line2d_18">
      <g>
       <use xlink:href="#m9db59d6e08" x="187.107947" y="284.842276" style="stroke: #000000"/>
      </g>
     </g>
    </g>
    <g id="xtick_19">
     <g id="line2d_19">
      <g>
       <use xlink:href="#m9db59d6e08" x="193.802361" y="284.842276" style="stroke: #000000"/>
      </g>
     </g>
    </g>
    <g id="xtick_20">
     <g id="line2d_20">
      <g>
       <use xlink:href="#m9db59d6e08" x="199.462408" y="284.842276" style="stroke: #000000"/>
      </g>
     </g>
    </g>
    <g id="xtick_21">
     <g id="line2d_21">
      <g>
       <use xlink:href="#m9db59d6e08" x="204.365364" y="284.842276" style="stroke: #000000"/>
      </g>
     </g>
    </g>
    <g id="xtick_22">
     <g id="line2d_22">
      <g>
       <use xlink:href="#m9db59d6e08" x="208.690077" y="284.842276" style="stroke: #000000"/>
      </g>
     </g>
    </g>
    <g id="xtick_23">
     <g id="line2d_23">
      <g>
       <use xlink:href="#m9db59d6e08" x="238.009383" y="284.842276" style="stroke: #000000"/>
      </g>
     </g>
    </g>
    <g id="xtick_24">
     <g id="line2d_24">
      <g>
       <use xlink:href="#m9db59d6e08" x="252.897098" y="284.842276" style="stroke: #000000"/>
      </g>
     </g>
    </g>
    <g id="xtick_25">
     <g id="line2d_25">
      <g>
       <use xlink:href="#m9db59d6e08" x="263.4601" y="284.842276" style="stroke: #000000"/>
      </g>
     </g>
    </g>
    <g id="xtick_26">
     <g id="line2d_26">
      <g>
       <use xlink:href="#m9db59d6e08" x="271.653402" y="284.842276" style="stroke: #000000"/>
      </g>
     </g>
    </g>
    <g id="xtick_27">
     <g id="line2d_27">
      <g>
       <use xlink:href="#m9db59d6e08" x="278.347816" y="284.842276" style="stroke: #000000"/>
      </g>
     </g>
    </g>
    <g id="xtick_28">
     <g id="line2d_28">
      <g>
       <use xlink:href="#m9db59d6e08" x="284.007863" y="284.842276" style="stroke: #000000"/>
      </g>
     </g>
    </g>
    <g id="xtick_29">
     <g id="line2d_29">
      <g>
       <use xlink:href="#m9db59d6e08" x="288.910818" y="284.842276" style="stroke: #000000"/>
      </g>
     </g>
    </g>
    <g id="xtick_30">
     <g id="line2d_30">
      <g>
       <use xlink:href="#m9db59d6e08" x="293.235531" y="284.842276" style="stroke: #000000"/>
      </g>
     </g>
    </g>
    <g id="text_5">
     <!-- Number of Nodes Changed Per Frame -->
     <g transform="translate(68.076484 321.550558) scale(0.13 -0.13)">
      <defs>
       <path id="LinBiolinum-4e" d="M 691 4128 
L 703 4147 
Q 753 4128 972 4128 
Q 972 4128 1063 4141 
L 3256 1300 
Q 3513 969 3559 947 
Q 3606 925 3622 1006 
Q 3631 1053 3634 1141 
L 3634 2847 
Q 3634 3672 3572 4128 
L 3584 4147 
Q 3700 4128 3808 4128 
Q 3916 4128 4031 4147 
L 4044 4128 
Q 4006 3628 3984 3081 
Q 3963 2534 3956 2173 
Q 3950 1813 3936 1147 
Q 3922 481 3916 134 
Q 3903 -63 3794 -63 
Q 3634 -63 3519 91 
L 1288 2913 
Q 1191 3041 1145 3089 
Q 1100 3138 1072 3120 
Q 1044 3103 1041 3039 
Q 1038 2975 1038 2809 
L 1038 1281 
Q 1038 456 1100 0 
L 1088 -19 
Q 972 0 864 0 
Q 756 0 641 -19 
L 628 0 
Q 706 744 720 1991 
Q 734 3238 691 4128 
z
" transform="scale(0.015625)"/>
       <path id="LinBiolinum-75" d="M 2338 588 
Q 2159 313 1901 125 
Q 1644 -63 1369 -63 
Q 928 -63 729 192 
Q 531 447 531 825 
L 531 1594 
Q 531 2338 475 2747 
L 488 2766 
Q 603 2747 787 2747 
Q 972 2747 1088 2766 
L 1100 2747 
Q 1044 2363 1044 1594 
L 1044 959 
Q 1044 556 1156 425 
Q 1269 294 1472 294 
Q 1697 294 1942 495 
Q 2188 697 2350 966 
L 2350 1594 
Q 2350 2322 2291 2747 
L 2303 2766 
Q 2419 2747 2605 2747 
Q 2791 2747 2906 2766 
L 2919 2747 
Q 2863 2363 2859 1594 
L 2859 1228 
Q 2859 581 2969 0 
L 2956 -19 
Q 2828 0 2672 0 
Q 2566 0 2419 -19 
Q 2394 -19 2394 0 
L 2363 569 
L 2338 588 
z
" transform="scale(0.015625)"/>
       <path id="LinBiolinum-6d" d="M 1038 2253 
L 1056 2234 
Q 1600 2809 2131 2809 
Q 2400 2809 2583 2671 
Q 2766 2534 2809 2303 
Q 3291 2809 3891 2809 
Q 4366 2809 4525 2550 
Q 4684 2291 4684 1791 
L 4684 1153 
Q 4684 409 4744 0 
L 4728 -19 
Q 4613 0 4428 0 
Q 4244 0 4128 -19 
L 4116 0 
Q 4172 391 4172 1153 
L 4172 1856 
Q 4172 2169 4050 2297 
Q 3928 2425 3659 2425 
Q 3191 2425 2847 2041 
Q 2853 1963 2853 1797 
L 2853 1153 
Q 2853 409 2913 0 
L 2900 -19 
Q 2784 0 2598 0 
Q 2413 0 2297 -19 
L 2284 0 
Q 2341 391 2344 1153 
L 2344 1856 
Q 2344 2425 1919 2425 
Q 1747 2425 1503 2287 
Q 1259 2150 1038 1925 
L 1038 1153 
Q 1038 409 1094 0 
L 1081 -19 
Q 966 0 780 0 
Q 594 0 481 -19 
L 469 0 
Q 525 391 525 1153 
L 525 1503 
Q 525 2388 469 2747 
L 481 2766 
Q 763 2741 997 2784 
Q 1034 2784 1038 2719 
L 1038 2253 
z
" transform="scale(0.015625)"/>
       <path id="LinBiolinum-62" d="M 1038 519 
Q 1141 391 1300 291 
Q 1459 191 1600 191 
Q 2041 191 2242 505 
Q 2444 819 2444 1434 
Q 2444 1997 2236 2275 
Q 2028 2553 1709 2553 
Q 1525 2553 1383 2467 
Q 1241 2381 1038 2175 
L 1038 519 
z
M 1038 3200 
L 1038 2491 
Q 1331 2809 1838 2809 
Q 2319 2809 2667 2431 
Q 3016 2053 3016 1484 
Q 3016 728 2602 332 
Q 2188 -63 1638 -63 
Q 1247 -63 884 250 
Q 781 59 672 -63 
Q 544 -63 494 -13 
Q 525 153 525 469 
L 525 3084 
Q 525 3891 447 4319 
L 459 4341 
Q 747 4359 1019 4469 
Q 1075 4469 1075 4403 
Q 1038 3903 1038 3200 
z
" transform="scale(0.015625)"/>
       <path id="LinBiolinum-65" d="M 800 1747 
L 1978 1747 
Q 2069 1747 2069 1838 
Q 2069 2178 1905 2365 
Q 1741 2553 1530 2553 
Q 1319 2553 1095 2370 
Q 872 2188 800 1747 
z
M 2509 666 
L 2638 506 
Q 2453 250 2158 93 
Q 1863 -63 1522 -63 
Q 856 -63 506 359 
Q 219 706 219 1338 
Q 219 2009 612 2409 
Q 1006 2809 1528 2809 
Q 2103 2809 2370 2445 
Q 2638 2081 2638 1600 
Q 2638 1491 2522 1491 
L 781 1491 
Q 781 922 934 678 
Q 1166 313 1631 313 
Q 2184 313 2509 666 
z
" transform="scale(0.015625)"/>
       <path id="LinBiolinum-72" d="M 1069 2138 
L 1088 2125 
Q 1313 2509 1481 2659 
Q 1650 2809 1900 2809 
Q 1978 2809 2131 2766 
L 2156 2741 
L 2028 2266 
L 1978 2253 
Q 1881 2344 1644 2344 
Q 1431 2344 1288 2119 
Q 1069 1788 1069 1484 
L 1069 1153 
Q 1069 438 1125 0 
L 1113 -19 
Q 997 0 812 0 
Q 628 0 513 -19 
L 500 0 
Q 556 397 556 1153 
L 556 1503 
Q 556 2388 500 2747 
L 513 2766 
Q 794 2741 1031 2784 
Q 1069 2784 1069 2719 
L 1069 2138 
z
" transform="scale(0.015625)"/>
       <path id="LinBiolinum-20" transform="scale(0.015625)"/>
       <path id="LinBiolinum-6f" d="M 244 1313 
Q 244 1991 620 2400 
Q 997 2809 1625 2809 
Q 2266 2809 2611 2421 
Q 2956 2034 2956 1369 
Q 2956 728 2592 332 
Q 2228 -63 1600 -63 
Q 978 -63 611 328 
Q 244 719 244 1313 
z
M 1581 2553 
Q 1300 2553 1117 2381 
Q 934 2209 870 1968 
Q 806 1728 806 1422 
Q 806 1134 870 878 
Q 934 622 1139 406 
Q 1344 191 1656 191 
Q 1975 191 2184 492 
Q 2394 794 2394 1253 
Q 2394 1900 2225 2226 
Q 2056 2553 1581 2553 
z
" transform="scale(0.015625)"/>
       <path id="LinBiolinum-66" d="M 634 2747 
L 634 2994 
Q 634 3531 984 3975 
Q 1163 4206 1448 4337 
Q 1734 4469 2034 4469 
Q 2219 4469 2322 4403 
L 2328 4384 
Q 2231 4194 2150 3859 
L 2081 3853 
Q 1959 4078 1709 4078 
Q 1434 4078 1273 3914 
Q 1113 3750 1113 3481 
Q 1113 3438 1130 3184 
Q 1147 2931 1147 2803 
L 1147 2747 
L 1422 2747 
Q 1600 2747 1869 2759 
L 1900 2713 
Q 1850 2584 1825 2450 
Q 1697 2463 1363 2463 
L 1147 2463 
L 1147 1275 
Q 1147 431 1209 0 
L 1197 -19 
Q 1081 0 889 0 
Q 697 0 581 -19 
L 569 0 
Q 631 403 634 1275 
L 634 2463 
L 628 2463 
Q 334 2463 153 2450 
L 122 2497 
Q 213 2638 263 2759 
Q 359 2747 634 2747 
z
" transform="scale(0.015625)"/>
       <path id="LinBiolinum-64" d="M 2309 722 
L 2309 2181 
Q 2188 2372 2053 2462 
Q 1919 2553 1703 2553 
Q 1569 2553 1441 2504 
Q 1313 2456 1178 2345 
Q 1044 2234 964 1993 
Q 884 1753 884 1416 
Q 884 847 1062 558 
Q 1241 269 1522 269 
Q 1950 269 2309 722 
z
M 2309 372 
Q 1969 -63 1484 -63 
Q 972 -63 648 350 
Q 325 763 325 1363 
Q 325 2009 733 2409 
Q 1141 2809 1772 2809 
Q 2059 2809 2309 2669 
L 2309 3084 
Q 2309 4000 2253 4319 
L 2266 4341 
Q 2553 4359 2822 4469 
Q 2878 4469 2881 4403 
Q 2825 3694 2822 3200 
L 2822 1228 
Q 2822 581 2931 0 
L 2919 -19 
Q 2791 0 2634 0 
Q 2559 0 2413 -19 
Q 2356 -19 2356 0 
L 2322 372 
L 2309 372 
z
" transform="scale(0.015625)"/>
       <path id="LinBiolinum-73" d="M 319 647 
L 416 653 
Q 747 194 1172 191 
Q 1434 191 1596 333 
Q 1759 475 1759 722 
Q 1759 941 1603 1047 
Q 1447 1153 1113 1241 
Q 753 1338 550 1511 
Q 347 1684 347 2028 
Q 347 2400 634 2604 
Q 922 2809 1313 2809 
Q 1806 2809 2175 2619 
L 2188 2597 
L 2059 2125 
L 1972 2119 
Q 1850 2259 1792 2320 
Q 1734 2381 1587 2467 
Q 1441 2553 1288 2553 
Q 1075 2553 937 2448 
Q 800 2344 800 2150 
Q 800 1791 1394 1650 
Q 1791 1553 2028 1362 
Q 2266 1172 2266 813 
Q 2266 666 2217 525 
Q 2169 384 2058 243 
Q 1947 103 1719 20 
Q 1491 -63 1178 -63 
Q 703 -63 213 109 
L 319 647 
z
" transform="scale(0.015625)"/>
       <path id="LinBiolinum-43" d="M 2431 4213 
Q 2778 4213 3126 4131 
Q 3475 4050 3650 3972 
L 3828 3891 
L 3841 3872 
Q 3750 3525 3725 3163 
L 3647 3156 
Q 3269 3913 2344 3909 
Q 2131 3909 1907 3811 
Q 1684 3713 1471 3514 
Q 1259 3316 1125 2956 
Q 991 2597 991 2138 
Q 991 1375 1398 819 
Q 1806 263 2400 263 
Q 2853 263 3173 409 
Q 3494 556 3834 928 
L 3878 909 
Q 3906 834 3919 638 
Q 3341 -63 2344 -63 
Q 1366 -63 848 531 
Q 331 1125 331 2016 
Q 331 2938 965 3575 
Q 1600 4213 2431 4213 
z
" transform="scale(0.015625)"/>
       <path id="LinBiolinum-68" d="M 1088 2253 
L 1100 2234 
Q 1594 2809 2209 2809 
Q 2631 2809 2817 2559 
Q 3003 2309 3003 1797 
Q 3003 1694 2995 1473 
Q 2988 1253 2988 1153 
Q 2988 409 3047 0 
L 3034 -19 
Q 2919 0 2733 0 
Q 2547 0 2431 -19 
L 2419 0 
Q 2475 391 2478 1153 
L 2478 1778 
Q 2478 2156 2375 2290 
Q 2272 2425 2016 2425 
Q 1825 2425 1569 2297 
Q 1313 2169 1088 1900 
L 1088 1153 
Q 1088 444 1147 0 
L 1131 -19 
Q 1016 0 831 0 
Q 647 0 531 -19 
L 519 0 
Q 575 416 575 1153 
L 575 3078 
Q 575 4000 519 4319 
L 531 4341 
Q 819 4359 1088 4469 
Q 1144 4469 1147 4403 
Q 1091 3666 1088 3206 
L 1088 2253 
z
" transform="scale(0.015625)"/>
       <path id="LinBiolinum-61" d="M 1984 1441 
L 1441 1294 
Q 1088 1197 947 1040 
Q 806 884 806 653 
Q 806 500 937 381 
Q 1069 263 1281 263 
Q 1538 263 1869 513 
Q 1959 575 1959 678 
L 1984 1441 
z
M 1984 306 
L 1959 306 
Q 1703 88 1526 12 
Q 1350 -63 1088 -63 
Q 716 -63 502 109 
Q 288 281 288 628 
Q 288 953 572 1200 
Q 856 1447 1350 1556 
L 1947 1691 
Q 1991 1703 1991 1766 
Q 1991 1972 1945 2122 
Q 1900 2272 1842 2345 
Q 1784 2419 1689 2461 
Q 1594 2503 1530 2512 
Q 1466 2522 1375 2522 
Q 1009 2522 672 1978 
L 588 1984 
L 481 2413 
L 500 2438 
Q 941 2809 1441 2809 
Q 2497 2809 2497 1772 
Q 2497 1750 2487 1331 
Q 2478 913 2478 806 
Q 2478 403 2584 306 
Q 2638 259 2772 259 
Q 2850 259 2944 294 
L 2994 134 
Q 2806 -63 2484 -63 
Q 2303 -63 2170 31 
Q 2038 125 1984 306 
z
" transform="scale(0.015625)"/>
       <path id="LinBiolinum-6e" d="M 2944 1153 
Q 2944 425 3003 0 
L 2988 -19 
Q 2872 0 2687 0 
Q 2503 0 2388 -19 
L 2375 0 
Q 2431 428 2431 1153 
L 2431 1778 
Q 2431 2156 2329 2290 
Q 2228 2425 1972 2425 
Q 1775 2425 1522 2297 
Q 1269 2169 1044 1900 
L 1044 1153 
Q 1044 409 1100 0 
L 1088 -19 
Q 972 0 787 0 
Q 603 0 488 -19 
L 475 0 
Q 531 391 531 1153 
L 531 1503 
Q 531 2388 475 2747 
L 488 2766 
Q 769 2741 1006 2784 
Q 1044 2784 1044 2719 
L 1044 2253 
L 1056 2234 
Q 1550 2809 2163 2809 
Q 2584 2809 2770 2559 
Q 2956 2309 2956 1797 
Q 2956 1694 2950 1475 
Q 2944 1256 2944 1153 
z
" transform="scale(0.015625)"/>
       <path id="LinBiolinum-67" d="M 647 -666 
Q 647 -966 886 -1103 
Q 1125 -1241 1484 -1241 
Q 1925 -1241 2242 -1081 
Q 2559 -922 2559 -647 
Q 2559 -334 2309 -184 
Q 2125 -75 1631 -78 
Q 1600 -78 1386 -87 
Q 1172 -97 1063 -97 
Q 891 -194 769 -353 
Q 647 -513 647 -666 
z
M 2497 1825 
Q 2497 1428 2205 1150 
Q 1913 872 1434 872 
Q 1128 872 959 959 
Q 788 813 788 603 
Q 788 419 886 359 
Q 984 300 1159 300 
Q 1166 300 1344 313 
Q 1588 344 1856 347 
Q 2509 347 2759 134 
Q 3028 -97 3028 -500 
Q 3028 -953 2598 -1234 
Q 2169 -1516 1434 -1516 
Q 891 -1516 548 -1334 
Q 206 -1153 206 -794 
Q 206 -597 353 -372 
Q 634 -153 897 -47 
Q 650 -3 523 147 
Q 397 297 397 506 
Q 397 756 806 1038 
Q 353 1300 353 1838 
Q 353 2284 689 2546 
Q 1025 2809 1441 2809 
Q 1656 2809 1831 2753 
Q 2103 2769 2422 2817 
Q 2741 2866 2841 2875 
L 2859 2853 
Q 2841 2763 2841 2688 
Q 2841 2613 2859 2522 
L 2841 2503 
Q 2244 2566 2175 2569 
Q 2497 2356 2497 1825 
z
M 1997 1819 
Q 1997 2569 1416 2566 
Q 1141 2566 995 2380 
Q 850 2194 850 1869 
Q 850 1125 1453 1125 
Q 1728 1125 1862 1315 
Q 1997 1506 1997 1819 
z
" transform="scale(0.015625)"/>
       <path id="LinBiolinum-50" d="M 1216 3616 
L 1216 2106 
Q 1338 2044 1722 2041 
Q 2216 2041 2458 2262 
Q 2700 2484 2700 3016 
Q 2700 3291 2623 3472 
Q 2547 3653 2406 3743 
Q 2266 3834 2122 3865 
Q 1978 3897 1791 3897 
Q 1459 3897 1337 3830 
Q 1216 3763 1216 3616 
z
M 666 2847 
Q 666 3672 603 4128 
L 616 4147 
Q 731 4128 941 4128 
Q 1038 4128 1395 4150 
Q 1753 4172 1838 4172 
Q 2259 4172 2567 4067 
Q 2875 3963 3028 3786 
Q 3181 3609 3251 3426 
Q 3322 3244 3322 3047 
Q 3322 2828 3236 2614 
Q 3150 2400 2976 2204 
Q 2803 2009 2486 1887 
Q 2169 1766 1753 1766 
Q 1413 1766 1216 1831 
L 1216 1281 
Q 1216 456 1281 0 
L 1269 -19 
Q 1153 0 940 0 
Q 728 0 616 -19 
L 603 0 
Q 666 434 666 1281 
L 666 2847 
z
" transform="scale(0.015625)"/>
       <path id="LinBiolinum-46" d="M 2606 4128 
Q 2856 4128 3009 4147 
L 3022 4128 
Q 3009 3950 3009 3909 
Q 3009 3819 3022 3719 
L 3009 3694 
Q 2125 3772 1269 3769 
Q 1219 3597 1216 2847 
L 1216 2350 
Q 1888 2350 2644 2413 
L 2663 2394 
Q 2644 2303 2644 2189 
Q 2644 2075 2663 1984 
L 2644 1966 
Q 2009 2028 1216 2028 
L 1216 1281 
Q 1216 456 1281 0 
L 1269 -19 
Q 1159 0 941 0 
L 609 -19 
L 603 0 
Q 666 434 666 1281 
L 666 2847 
Q 666 3672 603 4128 
L 616 4147 
Q 725 4128 941 4128 
L 2606 4128 
z
" transform="scale(0.015625)"/>
      </defs>
      <use xlink:href="#LinBiolinum-4e"/>
      <use xlink:href="#LinBiolinum-75" x="71.777344"/>
      <use xlink:href="#LinBiolinum-6d" x="125.439453"/>
      <use xlink:href="#LinBiolinum-62" x="206.103516"/>
      <use xlink:href="#LinBiolinum-65" x="256.494141"/>
      <use xlink:href="#LinBiolinum-72" x="301.757812"/>
      <use xlink:href="#LinBiolinum-20" x="337.255859"/>
      <use xlink:href="#LinBiolinum-6f" x="362.255859"/>
      <use xlink:href="#LinBiolinum-66" x="412.255859"/>
      <use xlink:href="#LinBiolinum-20" x="443.652344"/>
      <use xlink:href="#LinBiolinum-4e" x="468.652344"/>
      <use xlink:href="#LinBiolinum-6f" x="540.429688"/>
      <use xlink:href="#LinBiolinum-64" x="590.429688"/>
      <use xlink:href="#LinBiolinum-65" x="643.408203"/>
      <use xlink:href="#LinBiolinum-73" x="688.671875"/>
      <use xlink:href="#LinBiolinum-20" x="728.271484"/>
      <use xlink:href="#LinBiolinum-43" x="753.271484"/>
      <use xlink:href="#LinBiolinum-68" x="820.947266"/>
      <use xlink:href="#LinBiolinum-61" x="875.830078"/>
      <use xlink:href="#LinBiolinum-6e" x="923.925781"/>
      <use xlink:href="#LinBiolinum-67" x="977.783203"/>
      <use xlink:href="#LinBiolinum-65" x="1027.636719"/>
      <use xlink:href="#LinBiolinum-64" x="1072.900391"/>
      <use xlink:href="#LinBiolinum-20" x="1125.878906"/>
      <use xlink:href="#LinBiolinum-50" x="1150.878906"/>
      <use xlink:href="#LinBiolinum-65" x="1206.738281"/>
      <use xlink:href="#LinBiolinum-72" x="1252.001953"/>
      <use xlink:href="#LinBiolinum-20" x="1287.5"/>
      <use xlink:href="#LinBiolinum-46" x="1312.5"/>
      <use xlink:href="#LinBiolinum-72" x="1362.890625"/>
      <use xlink:href="#LinBiolinum-61" x="1398.388672"/>
      <use xlink:href="#LinBiolinum-6d" x="1446.484375"/>
      <use xlink:href="#LinBiolinum-65" x="1527.148438"/>
     </g>
    </g>
   </g>
   <g id="matplotlib.axis_2">
    <g id="ytick_1">
     <g id="line2d_31">
      <defs>
       <path id="m4133ce14f9" d="M 0 0 
L -8 0 
" style="stroke: #000000"/>
      </defs>
      <g>
       <use xlink:href="#m4133ce14f9" x="30.785938" y="284.842276" style="stroke: #000000"/>
      </g>
     </g>
     <g id="text_6">
      <!-- 0 -->
      <g transform="translate(13.242969 289.381105) scale(0.13 -0.13)">
       <use xlink:href="#LinBiolinum-30"/>
      </g>
     </g>
    </g>
    <g id="ytick_2">
     <g id="line2d_32">
      <g>
       <use xlink:href="#m4133ce14f9" x="30.785938" y="239.325035" style="stroke: #000000"/>
      </g>
     </g>
     <g id="text_7">
      <!-- 5 -->
      <g transform="translate(13.242969 243.863863) scale(0.13 -0.13)">
       <defs>
        <path id="LinBiolinum-35" d="M 1294 -63 
Q 738 -63 325 294 
L 300 313 
L 441 825 
L 531 831 
Q 550 800 604 697 
Q 659 594 675 566 
Q 691 538 742 464 
Q 794 391 819 369 
Q 844 347 901 298 
Q 959 250 1014 237 
Q 1069 225 1142 208 
Q 1216 191 1306 191 
Q 1631 191 1832 450 
Q 2034 709 2034 1147 
Q 2034 1653 1829 1914 
Q 1625 2175 1300 2175 
Q 1000 2175 506 1978 
L 459 1994 
L 666 3878 
Q 1100 3841 1394 3841 
Q 1925 3841 2444 3903 
L 2491 3884 
L 2388 3450 
Q 2075 3413 1716 3413 
Q 1331 3413 903 3469 
L 769 2338 
Q 1031 2434 1466 2431 
Q 1984 2431 2290 2086 
Q 2597 1741 2597 1253 
Q 2597 684 2230 310 
Q 1863 -63 1294 -63 
z
" transform="scale(0.015625)"/>
       </defs>
       <use xlink:href="#LinBiolinum-35"/>
      </g>
     </g>
    </g>
    <g id="ytick_3">
     <g id="line2d_33">
      <g>
       <use xlink:href="#m4133ce14f9" x="30.785938" y="193.807794" style="stroke: #000000"/>
      </g>
     </g>
     <g id="text_8">
      <!-- 10 -->
      <g transform="translate(7.2 198.346622) scale(0.13 -0.13)">
       <use xlink:href="#LinBiolinum-31"/>
       <use xlink:href="#LinBiolinum-30" x="46.484375"/>
      </g>
     </g>
    </g>
    <g id="ytick_4">
     <g id="line2d_34">
      <g>
       <use xlink:href="#m4133ce14f9" x="30.785938" y="148.290552" style="stroke: #000000"/>
      </g>
     </g>
     <g id="text_9">
      <!-- 15 -->
      <g transform="translate(7.2 152.82938) scale(0.13 -0.13)">
       <use xlink:href="#LinBiolinum-31"/>
       <use xlink:href="#LinBiolinum-35" x="46.484375"/>
      </g>
     </g>
    </g>
    <g id="ytick_5">
     <g id="line2d_35">
      <g>
       <use xlink:href="#m4133ce14f9" x="30.785938" y="102.773311" style="stroke: #000000"/>
      </g>
     </g>
     <g id="text_10">
      <!-- 20 -->
      <g transform="translate(7.2 107.312139) scale(0.13 -0.13)">
       <defs>
        <path id="LinBiolinum-32" d="M 1422 3541 
Q 1116 3541 928 3391 
Q 869 3344 823 3284 
Q 778 3225 761 3195 
Q 744 3166 701 3066 
Q 659 2966 647 2938 
L 563 2944 
L 422 3384 
Q 569 3578 853 3740 
Q 1138 3903 1525 3903 
Q 2050 3903 2348 3618 
Q 2647 3334 2647 2870 
Q 2647 2406 2184 1778 
Q 1988 1513 1786 1281 
Q 1584 1050 1471 937 
Q 1359 825 1147 622 
Q 1034 513 1034 447 
Q 1034 431 1044 416 
Q 1219 428 1566 428 
Q 2159 428 2738 481 
Q 2706 353 2703 178 
Q 2703 103 2725 -31 
Q 1963 0 1613 0 
Q 1581 0 400 -31 
Q 334 75 338 219 
Q 338 263 347 300 
Q 359 313 568 508 
Q 778 703 892 817 
Q 1006 931 1204 1134 
Q 1403 1338 1564 1534 
Q 1725 1731 1853 1925 
Q 2097 2291 2097 2784 
Q 2097 3109 1890 3325 
Q 1684 3541 1422 3541 
z
" transform="scale(0.015625)"/>
       </defs>
       <use xlink:href="#LinBiolinum-32"/>
       <use xlink:href="#LinBiolinum-30" x="46.484375"/>
      </g>
     </g>
    </g>
    <g id="ytick_6">
     <g id="line2d_36">
      <g>
       <use xlink:href="#m4133ce14f9" x="30.785938" y="57.25607" style="stroke: #000000"/>
      </g>
     </g>
     <g id="text_11">
      <!-- 25 -->
      <g transform="translate(7.2 61.794898) scale(0.13 -0.13)">
       <use xlink:href="#LinBiolinum-32"/>
       <use xlink:href="#LinBiolinum-35" x="46.484375"/>
      </g>
     </g>
    </g>
    <g id="ytick_7">
     <g id="line2d_37">
      <g>
       <use xlink:href="#m4133ce14f9" x="30.785938" y="11.738828" style="stroke: #000000"/>
      </g>
     </g>
     <g id="text_12">
      <!-- 30 -->
      <g transform="translate(7.2 16.277656) scale(0.13 -0.13)">
       <defs>
        <path id="LinBiolinum-33" d="M 1338 184 
Q 1447 184 1572 223 
Q 1697 263 1840 352 
Q 1984 441 2079 636 
Q 2175 831 2175 1100 
Q 2175 1503 1925 1716 
Q 1675 1922 1300 1919 
Q 1109 1919 1031 1906 
L 1031 2188 
Q 1166 2169 1269 2169 
Q 1616 2169 1797 2350 
Q 2041 2581 2041 2975 
Q 2041 3269 1875 3461 
Q 1709 3653 1509 3653 
Q 1228 3653 1059 3522 
Q 891 3391 769 3109 
L 672 3116 
L 538 3525 
L 556 3547 
Q 966 3906 1569 3903 
Q 2038 3903 2317 3664 
Q 2597 3425 2597 3072 
Q 2597 2700 2361 2428 
Q 2125 2156 1844 2094 
L 1844 2059 
Q 2222 2028 2473 1775 
Q 2725 1522 2725 1153 
Q 2725 756 2483 467 
Q 2241 178 1933 57 
Q 1625 -63 1325 -63 
Q 738 -63 372 244 
L 353 263 
L 494 744 
L 588 750 
Q 678 566 714 497 
Q 750 428 836 336 
Q 922 244 1037 214 
Q 1153 184 1338 184 
z
" transform="scale(0.015625)"/>
       </defs>
       <use xlink:href="#LinBiolinum-33"/>
       <use xlink:href="#LinBiolinum-30" x="46.484375"/>
      </g>
     </g>
    </g>
   </g>
   <g id="patch_10">
    <path d="M 30.785938 284.842276 
L 30.785938 7.642276 
" style="fill: none; stroke: #000000; stroke-width: 0.8; stroke-linejoin: miter; stroke-linecap: square"/>
   </g>
   <g id="patch_11">
    <path d="M 309.785937 284.842276 
L 309.785937 7.642276 
" style="fill: none; stroke: #000000; stroke-width: 0.8; stroke-linejoin: miter; stroke-linecap: square"/>
   </g>
   <g id="patch_12">
    <path d="M 30.785938 284.842276 
L 309.785937 284.842276 
" style="fill: none; stroke: #000000; stroke-width: 0.8; stroke-linejoin: miter; stroke-linecap: square"/>
   </g>
   <g id="patch_13">
    <path d="M 30.785938 7.642276 
L 309.785937 7.642276 
" style="fill: none; stroke: #000000; stroke-width: 0.8; stroke-linejoin: miter; stroke-linecap: square"/>
   </g>
  </g>
 </g>
 <defs>
  <clipPath id="pf69da6df8c">
   <rect x="30.785938" y="7.642276" width="279" height="277.2"/>
  </clipPath>
 </defs>
</svg>
