<?xml version="1.0" encoding="utf-8" standalone="no"?>
<!DOCTYPE svg PUBLIC "-//W3C//DTD SVG 1.1//EN"
  "http://www.w3.org/Graphics/SVG/1.1/DTD/svg11.dtd">
<svg xmlns:xlink="http://www.w3.org/1999/xlink" width="323.028906pt" height="331.387656pt" viewBox="0 0 323.028906 331.387656" xmlns="http://www.w3.org/2000/svg" version="1.1">
 <metadata>
  <rdf:RDF xmlns:dc="http://purl.org/dc/elements/1.1/" xmlns:cc="http://creativecommons.org/ns#" xmlns:rdf="http://www.w3.org/1999/02/22-rdf-syntax-ns#">
   <cc:Work>
    <dc:type rdf:resource="http://purl.org/dc/dcmitype/StillImage"/>
    <dc:date>2024-11-13T16:39:04.026143</dc:date>
    <dc:format>image/svg+xml</dc:format>
    <dc:creator>
     <cc:Agent>
      <dc:title>Matplotlib v3.6.3, https://matplotlib.org/</dc:title>
     </cc:Agent>
    </dc:creator>
   </cc:Work>
  </rdf:RDF>
 </metadata>
 <defs>
  <style type="text/css">*{stroke-linejoin: round; stroke-linecap: butt}</style>
 </defs>
 <g id="figure_1">
  <g id="patch_1">
   <path d="M 0 331.387656 
L 323.028906 331.387656 
L 323.028906 0 
L 0 0 
z
" style="fill: #ffffff"/>
  </g>
  <g id="axes_1">
   <g id="patch_2">
    <path d="M 36.828906 284.4 
L 315.828906 284.4 
L 315.828906 7.2 
L 36.828906 7.2 
z
" style="fill: #ffffff"/>
   </g>
   <g id="patch_3">
    <path d="M 49.510724 284.4 
L 77.692543 284.4 
L 77.692543 167.116981 
L 49.510724 167.116981 
z
" clip-path="url(#p87991b15eb)" style="fill: #1f77b4; stroke: #000000; stroke-linejoin: miter"/>
   </g>
   <g id="patch_4">
    <path d="M 77.692543 284.4 
L 105.874361 284.4 
L 105.874361 20.4 
L 77.692543 20.4 
z
" clip-path="url(#p87991b15eb)" style="fill: #1f77b4; stroke: #000000; stroke-linejoin: miter"/>
   </g>
   <g id="patch_5">
    <path d="M 105.874361 284.4 
L 134.056179 284.4 
L 134.056179 99.645283 
L 105.874361 99.645283 
z
" clip-path="url(#p87991b15eb)" style="fill: #1f77b4; stroke: #000000; stroke-linejoin: miter"/>
   </g>
   <g id="patch_6">
    <path d="M 134.056179 284.4 
L 162.237997 284.4 
L 162.237997 139.041509 
L 134.056179 139.041509 
z
" clip-path="url(#p87991b15eb)" style="fill: #1f77b4; stroke: #000000; stroke-linejoin: miter"/>
   </g>
   <g id="patch_7">
    <path d="M 162.237997 284.4 
L 190.419815 284.4 
L 190.419815 178.437736 
L 162.237997 178.437736 
z
" clip-path="url(#p87991b15eb)" style="fill: #1f77b4; stroke: #000000; stroke-linejoin: miter"/>
   </g>
   <g id="patch_8">
    <path d="M 190.419815 284.4 
L 218.601634 284.4 
L 218.601634 205.154717 
L 190.419815 205.154717 
z
" clip-path="url(#p87991b15eb)" style="fill: #1f77b4; stroke: #000000; stroke-linejoin: miter"/>
   </g>
   <g id="patch_9">
    <path d="M 218.601634 284.4 
L 246.783452 284.4 
L 246.783452 215.569811 
L 218.601634 215.569811 
z
" clip-path="url(#p87991b15eb)" style="fill: #1f77b4; stroke: #000000; stroke-linejoin: miter"/>
   </g>
   <g id="patch_10">
    <path d="M 246.783452 284.4 
L 274.96527 284.4 
L 274.96527 269.909434 
L 246.783452 269.909434 
z
" clip-path="url(#p87991b15eb)" style="fill: #1f77b4; stroke: #000000; stroke-linejoin: miter"/>
   </g>
   <g id="patch_11">
    <path d="M 274.96527 284.4 
L 303.147088 284.4 
L 303.147088 283.49434 
L 274.96527 283.49434 
z
" clip-path="url(#p87991b15eb)" style="fill: #1f77b4; stroke: #000000; stroke-linejoin: miter"/>
   </g>
   <g id="matplotlib.axis_1">
    <g id="xtick_1">
     <g id="line2d_1">
      <defs>
       <path id="mdf254c913a" d="M 0 0 
L 0 8 
" style="stroke: #000000"/>
      </defs>
      <g>
       <use xlink:href="#mdf254c913a" x="49.510724" y="284.4" style="stroke: #000000"/>
      </g>
     </g>
     <g id="text_1">
      <!-- 1 -->
      <g transform="translate(46.48924 304.977656) scale(0.13 -0.13)">
       <defs>
        <path id="LinBiolinum-31" d="M 2088 1209 
Q 2088 494 2144 0 
L 2131 -19 
Q 1953 0 1825 0 
Q 1825 0 1528 -19 
L 1522 0 
Q 1572 416 1575 1209 
L 1575 2797 
Q 1575 3284 1459 3284 
Q 1388 3284 1125 3239 
Q 863 3194 728 3181 
L 691 3366 
Q 959 3450 1432 3648 
Q 1906 3847 2094 3903 
Q 2138 3903 2138 3872 
Q 2088 3513 2088 2834 
L 2088 1209 
z
" transform="scale(0.015625)"/>
       </defs>
       <use xlink:href="#LinBiolinum-31"/>
      </g>
     </g>
    </g>
    <g id="xtick_2">
     <g id="line2d_2">
      <g>
       <use xlink:href="#mdf254c913a" x="107.44794" y="284.4" style="stroke: #000000"/>
      </g>
     </g>
     <g id="text_2">
      <!-- 10 -->
      <g transform="translate(101.404972 304.977656) scale(0.13 -0.13)">
       <defs>
        <path id="LinBiolinum-30" d="M 1491 3653 
Q 800 3653 800 1838 
Q 800 1641 809 1450 
Q 819 1259 861 1017 
Q 903 775 973 601 
Q 1044 428 1169 306 
Q 1294 184 1466 184 
Q 1550 184 1636 217 
Q 1722 250 1847 394 
Q 1972 538 2034 781 
Q 2144 1178 2144 2028 
Q 2144 2638 2037 3028 
Q 1931 3419 1772 3553 
Q 1656 3653 1491 3653 
z
M 1459 -63 
Q 891 -63 570 484 
Q 250 1031 250 1850 
Q 250 2759 620 3331 
Q 991 3903 1491 3903 
Q 1856 3903 2100 3681 
Q 2694 3138 2694 1978 
Q 2694 1447 2572 1034 
Q 2450 622 2259 390 
Q 2069 159 1862 48 
Q 1656 -63 1459 -63 
z
" transform="scale(0.015625)"/>
       </defs>
       <use xlink:href="#LinBiolinum-31"/>
       <use xlink:href="#LinBiolinum-30" x="46.484375"/>
      </g>
     </g>
    </g>
    <g id="xtick_3">
     <g id="line2d_3">
      <g>
       <use xlink:href="#mdf254c913a" x="165.385156" y="284.4" style="stroke: #000000"/>
      </g>
     </g>
     <g id="text_3">
      <!-- 100 -->
      <g transform="translate(156.320703 304.977656) scale(0.13 -0.13)">
       <use xlink:href="#LinBiolinum-31"/>
       <use xlink:href="#LinBiolinum-30" x="46.484375"/>
       <use xlink:href="#LinBiolinum-30" x="92.96875"/>
      </g>
     </g>
    </g>
    <g id="xtick_4">
     <g id="line2d_4">
      <g>
       <use xlink:href="#mdf254c913a" x="223.322372" y="284.4" style="stroke: #000000"/>
      </g>
     </g>
     <g id="text_4">
      <!-- 1000 -->
      <g transform="translate(211.236434 304.977656) scale(0.13 -0.13)">
       <use xlink:href="#LinBiolinum-31"/>
       <use xlink:href="#LinBiolinum-30" x="46.484375"/>
       <use xlink:href="#LinBiolinum-30" x="92.96875"/>
       <use xlink:href="#LinBiolinum-30" x="139.453125"/>
      </g>
     </g>
    </g>
    <g id="xtick_5">
     <g id="line2d_5">
      <g>
       <use xlink:href="#mdf254c913a" x="281.259588" y="284.4" style="stroke: #000000"/>
      </g>
     </g>
     <g id="text_5">
      <!-- 10000 -->
      <g transform="translate(266.152166 304.977656) scale(0.13 -0.13)">
       <use xlink:href="#LinBiolinum-31"/>
       <use xlink:href="#LinBiolinum-30" x="46.484375"/>
       <use xlink:href="#LinBiolinum-30" x="92.96875"/>
       <use xlink:href="#LinBiolinum-30" x="139.453125"/>
       <use xlink:href="#LinBiolinum-30" x="185.9375"/>
      </g>
     </g>
    </g>
    <g id="xtick_6">
     <g id="line2d_6">
      <defs>
       <path id="m0fdf17d485" d="M 0 0 
L 0 4 
" style="stroke: #000000"/>
      </defs>
      <g>
       <use xlink:href="#m0fdf17d485" x="40.536136" y="284.4" style="stroke: #000000"/>
      </g>
     </g>
    </g>
    <g id="xtick_7">
     <g id="line2d_7">
      <g>
       <use xlink:href="#m0fdf17d485" x="43.896028" y="284.4" style="stroke: #000000"/>
      </g>
     </g>
    </g>
    <g id="xtick_8">
     <g id="line2d_8">
      <g>
       <use xlink:href="#m0fdf17d485" x="46.859663" y="284.4" style="stroke: #000000"/>
      </g>
     </g>
    </g>
    <g id="xtick_9">
     <g id="line2d_9">
      <g>
       <use xlink:href="#m0fdf17d485" x="66.951564" y="284.4" style="stroke: #000000"/>
      </g>
     </g>
    </g>
    <g id="xtick_10">
     <g id="line2d_10">
      <g>
       <use xlink:href="#m0fdf17d485" x="77.153802" y="284.4" style="stroke: #000000"/>
      </g>
     </g>
    </g>
    <g id="xtick_11">
     <g id="line2d_11">
      <g>
       <use xlink:href="#m0fdf17d485" x="84.392404" y="284.4" style="stroke: #000000"/>
      </g>
     </g>
    </g>
    <g id="xtick_12">
     <g id="line2d_12">
      <g>
       <use xlink:href="#m0fdf17d485" x="90.0071" y="284.4" style="stroke: #000000"/>
      </g>
     </g>
    </g>
    <g id="xtick_13">
     <g id="line2d_13">
      <g>
       <use xlink:href="#m0fdf17d485" x="94.594641" y="284.4" style="stroke: #000000"/>
      </g>
     </g>
    </g>
    <g id="xtick_14">
     <g id="line2d_14">
      <g>
       <use xlink:href="#m0fdf17d485" x="98.473352" y="284.4" style="stroke: #000000"/>
      </g>
     </g>
    </g>
    <g id="xtick_15">
     <g id="line2d_15">
      <g>
       <use xlink:href="#m0fdf17d485" x="101.833244" y="284.4" style="stroke: #000000"/>
      </g>
     </g>
    </g>
    <g id="xtick_16">
     <g id="line2d_16">
      <g>
       <use xlink:href="#m0fdf17d485" x="104.796879" y="284.4" style="stroke: #000000"/>
      </g>
     </g>
    </g>
    <g id="xtick_17">
     <g id="line2d_17">
      <g>
       <use xlink:href="#m0fdf17d485" x="124.88878" y="284.4" style="stroke: #000000"/>
      </g>
     </g>
    </g>
    <g id="xtick_18">
     <g id="line2d_18">
      <g>
       <use xlink:href="#m0fdf17d485" x="135.091017" y="284.4" style="stroke: #000000"/>
      </g>
     </g>
    </g>
    <g id="xtick_19">
     <g id="line2d_19">
      <g>
       <use xlink:href="#m0fdf17d485" x="142.32962" y="284.4" style="stroke: #000000"/>
      </g>
     </g>
    </g>
    <g id="xtick_20">
     <g id="line2d_20">
      <g>
       <use xlink:href="#m0fdf17d485" x="147.944316" y="284.4" style="stroke: #000000"/>
      </g>
     </g>
    </g>
    <g id="xtick_21">
     <g id="line2d_21">
      <g>
       <use xlink:href="#m0fdf17d485" x="152.531857" y="284.4" style="stroke: #000000"/>
      </g>
     </g>
    </g>
    <g id="xtick_22">
     <g id="line2d_22">
      <g>
       <use xlink:href="#m0fdf17d485" x="156.410568" y="284.4" style="stroke: #000000"/>
      </g>
     </g>
    </g>
    <g id="xtick_23">
     <g id="line2d_23">
      <g>
       <use xlink:href="#m0fdf17d485" x="159.77046" y="284.4" style="stroke: #000000"/>
      </g>
     </g>
    </g>
    <g id="xtick_24">
     <g id="line2d_24">
      <g>
       <use xlink:href="#m0fdf17d485" x="162.734094" y="284.4" style="stroke: #000000"/>
      </g>
     </g>
    </g>
    <g id="xtick_25">
     <g id="line2d_25">
      <g>
       <use xlink:href="#m0fdf17d485" x="182.825996" y="284.4" style="stroke: #000000"/>
      </g>
     </g>
    </g>
    <g id="xtick_26">
     <g id="line2d_26">
      <g>
       <use xlink:href="#m0fdf17d485" x="193.028233" y="284.4" style="stroke: #000000"/>
      </g>
     </g>
    </g>
    <g id="xtick_27">
     <g id="line2d_27">
      <g>
       <use xlink:href="#m0fdf17d485" x="200.266836" y="284.4" style="stroke: #000000"/>
      </g>
     </g>
    </g>
    <g id="xtick_28">
     <g id="line2d_28">
      <g>
       <use xlink:href="#m0fdf17d485" x="205.881532" y="284.4" style="stroke: #000000"/>
      </g>
     </g>
    </g>
    <g id="xtick_29">
     <g id="line2d_29">
      <g>
       <use xlink:href="#m0fdf17d485" x="210.469073" y="284.4" style="stroke: #000000"/>
      </g>
     </g>
    </g>
    <g id="xtick_30">
     <g id="line2d_30">
      <g>
       <use xlink:href="#m0fdf17d485" x="214.347784" y="284.4" style="stroke: #000000"/>
      </g>
     </g>
    </g>
    <g id="xtick_31">
     <g id="line2d_31">
      <g>
       <use xlink:href="#m0fdf17d485" x="217.707676" y="284.4" style="stroke: #000000"/>
      </g>
     </g>
    </g>
    <g id="xtick_32">
     <g id="line2d_32">
      <g>
       <use xlink:href="#m0fdf17d485" x="220.67131" y="284.4" style="stroke: #000000"/>
      </g>
     </g>
    </g>
    <g id="xtick_33">
     <g id="line2d_33">
      <g>
       <use xlink:href="#m0fdf17d485" x="240.763212" y="284.4" style="stroke: #000000"/>
      </g>
     </g>
    </g>
    <g id="xtick_34">
     <g id="line2d_34">
      <g>
       <use xlink:href="#m0fdf17d485" x="250.965449" y="284.4" style="stroke: #000000"/>
      </g>
     </g>
    </g>
    <g id="xtick_35">
     <g id="line2d_35">
      <g>
       <use xlink:href="#m0fdf17d485" x="258.204052" y="284.4" style="stroke: #000000"/>
      </g>
     </g>
    </g>
    <g id="xtick_36">
     <g id="line2d_36">
      <g>
       <use xlink:href="#m0fdf17d485" x="263.818748" y="284.4" style="stroke: #000000"/>
      </g>
     </g>
    </g>
    <g id="xtick_37">
     <g id="line2d_37">
      <g>
       <use xlink:href="#m0fdf17d485" x="268.406289" y="284.4" style="stroke: #000000"/>
      </g>
     </g>
    </g>
    <g id="xtick_38">
     <g id="line2d_38">
      <g>
       <use xlink:href="#m0fdf17d485" x="272.284999" y="284.4" style="stroke: #000000"/>
      </g>
     </g>
    </g>
    <g id="xtick_39">
     <g id="line2d_39">
      <g>
       <use xlink:href="#m0fdf17d485" x="275.644891" y="284.4" style="stroke: #000000"/>
      </g>
     </g>
    </g>
    <g id="xtick_40">
     <g id="line2d_40">
      <g>
       <use xlink:href="#m0fdf17d485" x="278.608526" y="284.4" style="stroke: #000000"/>
      </g>
     </g>
    </g>
    <g id="xtick_41">
     <g id="line2d_41">
      <g>
       <use xlink:href="#m0fdf17d485" x="298.700428" y="284.4" style="stroke: #000000"/>
      </g>
     </g>
    </g>
    <g id="xtick_42">
     <g id="line2d_42">
      <g>
       <use xlink:href="#m0fdf17d485" x="308.902665" y="284.4" style="stroke: #000000"/>
      </g>
     </g>
    </g>
    <g id="text_6">
     <!-- Number of Nodes Accessed by Spineless Traversal -->
     <g transform="translate(42.71125 321.108281) scale(0.13 -0.13)">
      <defs>
       <path id="LinBiolinum-4e" d="M 691 4128 
L 703 4147 
Q 753 4128 972 4128 
Q 972 4128 1063 4141 
L 3256 1300 
Q 3513 969 3559 947 
Q 3606 925 3622 1006 
Q 3631 1053 3634 1141 
L 3634 2847 
Q 3634 3672 3572 4128 
L 3584 4147 
Q 3700 4128 3808 4128 
Q 3916 4128 4031 4147 
L 4044 4128 
Q 4006 3628 3984 3081 
Q 3963 2534 3956 2173 
Q 3950 1813 3936 1147 
Q 3922 481 3916 134 
Q 3903 -63 3794 -63 
Q 3634 -63 3519 91 
L 1288 2913 
Q 1191 3041 1145 3089 
Q 1100 3138 1072 3120 
Q 1044 3103 1041 3039 
Q 1038 2975 1038 2809 
L 1038 1281 
Q 1038 456 1100 0 
L 1088 -19 
Q 972 0 864 0 
Q 756 0 641 -19 
L 628 0 
Q 706 744 720 1991 
Q 734 3238 691 4128 
z
" transform="scale(0.015625)"/>
       <path id="LinBiolinum-75" d="M 2338 588 
Q 2159 313 1901 125 
Q 1644 -63 1369 -63 
Q 928 -63 729 192 
Q 531 447 531 825 
L 531 1594 
Q 531 2338 475 2747 
L 488 2766 
Q 603 2747 787 2747 
Q 972 2747 1088 2766 
L 1100 2747 
Q 1044 2363 1044 1594 
L 1044 959 
Q 1044 556 1156 425 
Q 1269 294 1472 294 
Q 1697 294 1942 495 
Q 2188 697 2350 966 
L 2350 1594 
Q 2350 2322 2291 2747 
L 2303 2766 
Q 2419 2747 2605 2747 
Q 2791 2747 2906 2766 
L 2919 2747 
Q 2863 2363 2859 1594 
L 2859 1228 
Q 2859 581 2969 0 
L 2956 -19 
Q 2828 0 2672 0 
Q 2566 0 2419 -19 
Q 2394 -19 2394 0 
L 2363 569 
L 2338 588 
z
" transform="scale(0.015625)"/>
       <path id="LinBiolinum-6d" d="M 1038 2253 
L 1056 2234 
Q 1600 2809 2131 2809 
Q 2400 2809 2583 2671 
Q 2766 2534 2809 2303 
Q 3291 2809 3891 2809 
Q 4366 2809 4525 2550 
Q 4684 2291 4684 1791 
L 4684 1153 
Q 4684 409 4744 0 
L 4728 -19 
Q 4613 0 4428 0 
Q 4244 0 4128 -19 
L 4116 0 
Q 4172 391 4172 1153 
L 4172 1856 
Q 4172 2169 4050 2297 
Q 3928 2425 3659 2425 
Q 3191 2425 2847 2041 
Q 2853 1963 2853 1797 
L 2853 1153 
Q 2853 409 2913 0 
L 2900 -19 
Q 2784 0 2598 0 
Q 2413 0 2297 -19 
L 2284 0 
Q 2341 391 2344 1153 
L 2344 1856 
Q 2344 2425 1919 2425 
Q 1747 2425 1503 2287 
Q 1259 2150 1038 1925 
L 1038 1153 
Q 1038 409 1094 0 
L 1081 -19 
Q 966 0 780 0 
Q 594 0 481 -19 
L 469 0 
Q 525 391 525 1153 
L 525 1503 
Q 525 2388 469 2747 
L 481 2766 
Q 763 2741 997 2784 
Q 1034 2784 1038 2719 
L 1038 2253 
z
" transform="scale(0.015625)"/>
       <path id="LinBiolinum-62" d="M 1038 519 
Q 1141 391 1300 291 
Q 1459 191 1600 191 
Q 2041 191 2242 505 
Q 2444 819 2444 1434 
Q 2444 1997 2236 2275 
Q 2028 2553 1709 2553 
Q 1525 2553 1383 2467 
Q 1241 2381 1038 2175 
L 1038 519 
z
M 1038 3200 
L 1038 2491 
Q 1331 2809 1838 2809 
Q 2319 2809 2667 2431 
Q 3016 2053 3016 1484 
Q 3016 728 2602 332 
Q 2188 -63 1638 -63 
Q 1247 -63 884 250 
Q 781 59 672 -63 
Q 544 -63 494 -13 
Q 525 153 525 469 
L 525 3084 
Q 525 3891 447 4319 
L 459 4341 
Q 747 4359 1019 4469 
Q 1075 4469 1075 4403 
Q 1038 3903 1038 3200 
z
" transform="scale(0.015625)"/>
       <path id="LinBiolinum-65" d="M 800 1747 
L 1978 1747 
Q 2069 1747 2069 1838 
Q 2069 2178 1905 2365 
Q 1741 2553 1530 2553 
Q 1319 2553 1095 2370 
Q 872 2188 800 1747 
z
M 2509 666 
L 2638 506 
Q 2453 250 2158 93 
Q 1863 -63 1522 -63 
Q 856 -63 506 359 
Q 219 706 219 1338 
Q 219 2009 612 2409 
Q 1006 2809 1528 2809 
Q 2103 2809 2370 2445 
Q 2638 2081 2638 1600 
Q 2638 1491 2522 1491 
L 781 1491 
Q 781 922 934 678 
Q 1166 313 1631 313 
Q 2184 313 2509 666 
z
" transform="scale(0.015625)"/>
       <path id="LinBiolinum-72" d="M 1069 2138 
L 1088 2125 
Q 1313 2509 1481 2659 
Q 1650 2809 1900 2809 
Q 1978 2809 2131 2766 
L 2156 2741 
L 2028 2266 
L 1978 2253 
Q 1881 2344 1644 2344 
Q 1431 2344 1288 2119 
Q 1069 1788 1069 1484 
L 1069 1153 
Q 1069 438 1125 0 
L 1113 -19 
Q 997 0 812 0 
Q 628 0 513 -19 
L 500 0 
Q 556 397 556 1153 
L 556 1503 
Q 556 2388 500 2747 
L 513 2766 
Q 794 2741 1031 2784 
Q 1069 2784 1069 2719 
L 1069 2138 
z
" transform="scale(0.015625)"/>
       <path id="LinBiolinum-20" transform="scale(0.015625)"/>
       <path id="LinBiolinum-6f" d="M 244 1313 
Q 244 1991 620 2400 
Q 997 2809 1625 2809 
Q 2266 2809 2611 2421 
Q 2956 2034 2956 1369 
Q 2956 728 2592 332 
Q 2228 -63 1600 -63 
Q 978 -63 611 328 
Q 244 719 244 1313 
z
M 1581 2553 
Q 1300 2553 1117 2381 
Q 934 2209 870 1968 
Q 806 1728 806 1422 
Q 806 1134 870 878 
Q 934 622 1139 406 
Q 1344 191 1656 191 
Q 1975 191 2184 492 
Q 2394 794 2394 1253 
Q 2394 1900 2225 2226 
Q 2056 2553 1581 2553 
z
" transform="scale(0.015625)"/>
       <path id="LinBiolinum-66" d="M 634 2747 
L 634 2994 
Q 634 3531 984 3975 
Q 1163 4206 1448 4337 
Q 1734 4469 2034 4469 
Q 2219 4469 2322 4403 
L 2328 4384 
Q 2231 4194 2150 3859 
L 2081 3853 
Q 1959 4078 1709 4078 
Q 1434 4078 1273 3914 
Q 1113 3750 1113 3481 
Q 1113 3438 1130 3184 
Q 1147 2931 1147 2803 
L 1147 2747 
L 1422 2747 
Q 1600 2747 1869 2759 
L 1900 2713 
Q 1850 2584 1825 2450 
Q 1697 2463 1363 2463 
L 1147 2463 
L 1147 1275 
Q 1147 431 1209 0 
L 1197 -19 
Q 1081 0 889 0 
Q 697 0 581 -19 
L 569 0 
Q 631 403 634 1275 
L 634 2463 
L 628 2463 
Q 334 2463 153 2450 
L 122 2497 
Q 213 2638 263 2759 
Q 359 2747 634 2747 
z
" transform="scale(0.015625)"/>
       <path id="LinBiolinum-64" d="M 2309 722 
L 2309 2181 
Q 2188 2372 2053 2462 
Q 1919 2553 1703 2553 
Q 1569 2553 1441 2504 
Q 1313 2456 1178 2345 
Q 1044 2234 964 1993 
Q 884 1753 884 1416 
Q 884 847 1062 558 
Q 1241 269 1522 269 
Q 1950 269 2309 722 
z
M 2309 372 
Q 1969 -63 1484 -63 
Q 972 -63 648 350 
Q 325 763 325 1363 
Q 325 2009 733 2409 
Q 1141 2809 1772 2809 
Q 2059 2809 2309 2669 
L 2309 3084 
Q 2309 4000 2253 4319 
L 2266 4341 
Q 2553 4359 2822 4469 
Q 2878 4469 2881 4403 
Q 2825 3694 2822 3200 
L 2822 1228 
Q 2822 581 2931 0 
L 2919 -19 
Q 2791 0 2634 0 
Q 2559 0 2413 -19 
Q 2356 -19 2356 0 
L 2322 372 
L 2309 372 
z
" transform="scale(0.015625)"/>
       <path id="LinBiolinum-73" d="M 319 647 
L 416 653 
Q 747 194 1172 191 
Q 1434 191 1596 333 
Q 1759 475 1759 722 
Q 1759 941 1603 1047 
Q 1447 1153 1113 1241 
Q 753 1338 550 1511 
Q 347 1684 347 2028 
Q 347 2400 634 2604 
Q 922 2809 1313 2809 
Q 1806 2809 2175 2619 
L 2188 2597 
L 2059 2125 
L 1972 2119 
Q 1850 2259 1792 2320 
Q 1734 2381 1587 2467 
Q 1441 2553 1288 2553 
Q 1075 2553 937 2448 
Q 800 2344 800 2150 
Q 800 1791 1394 1650 
Q 1791 1553 2028 1362 
Q 2266 1172 2266 813 
Q 2266 666 2217 525 
Q 2169 384 2058 243 
Q 1947 103 1719 20 
Q 1491 -63 1178 -63 
Q 703 -63 213 109 
L 319 647 
z
" transform="scale(0.015625)"/>
       <path id="LinBiolinum-41" d="M 2606 1763 
Q 2309 2531 1959 3341 
L 1947 3341 
L 1272 1766 
Q 1613 1747 1941 1747 
Q 2253 1747 2606 1763 
z
M 1147 1463 
Q 753 500 616 -19 
Q 538 0 325 0 
Q 178 0 103 -19 
Q 1191 2369 1991 4213 
L 2169 4213 
Q 2388 3694 2788 2701 
Q 3188 1709 3484 986 
Q 3781 263 3922 -19 
Q 3813 0 3541 0 
Q 3328 0 3219 -19 
Q 3063 547 2722 1463 
Q 2475 1481 1972 1478 
Q 1400 1481 1147 1463 
z
" transform="scale(0.015625)"/>
       <path id="LinBiolinum-63" d="M 1600 2553 
Q 1269 2553 1037 2247 
Q 806 1941 806 1428 
Q 806 884 1040 570 
Q 1275 256 1638 256 
Q 2022 256 2322 525 
L 2350 525 
L 2472 391 
Q 2113 -63 1528 -63 
Q 941 -63 592 332 
Q 244 728 244 1394 
Q 244 2016 659 2412 
Q 1075 2809 1606 2809 
Q 2113 2809 2456 2631 
L 2472 2613 
L 2322 2088 
L 2241 2081 
Q 1966 2553 1600 2553 
z
" transform="scale(0.015625)"/>
       <path id="LinBiolinum-79" d="M 178 2766 
Q 269 2747 513 2747 
Q 744 2747 825 2766 
Q 1038 2113 1681 559 
L 1694 559 
Q 2125 1478 2534 2766 
Q 2597 2747 2784 2747 
Q 2997 2747 3059 2766 
Q 2784 2209 2073 606 
Q 1363 -997 1203 -1516 
Q 1094 -1484 891 -1484 
Q 775 -1484 666 -1516 
Q 1125 -741 1422 -63 
Q 1291 281 178 2766 
z
" transform="scale(0.015625)"/>
       <path id="LinBiolinum-53" d="M 1550 219 
Q 1850 219 2073 420 
Q 2297 622 2297 966 
Q 2297 1338 2105 1539 
Q 1913 1741 1550 1894 
Q 1313 1991 1145 2086 
Q 978 2181 806 2326 
Q 634 2472 540 2665 
Q 447 2859 447 3103 
Q 447 3434 648 3704 
Q 850 3975 1153 4103 
Q 1416 4213 1703 4213 
Q 1916 4213 2097 4183 
Q 2278 4153 2387 4112 
Q 2497 4072 2576 4026 
Q 2656 3981 2688 3953 
L 2719 3922 
L 2731 3903 
Q 2609 3500 2584 3263 
L 2522 3256 
Q 2394 3556 2153 3742 
Q 1913 3928 1650 3928 
Q 1406 3928 1259 3853 
Q 1138 3791 1052 3620 
Q 966 3450 966 3278 
Q 966 3094 1036 2945 
Q 1106 2797 1240 2701 
Q 1375 2606 1481 2551 
Q 1588 2497 1747 2438 
Q 2894 2009 2894 1159 
Q 2894 609 2497 273 
Q 2100 -63 1497 -63 
Q 1166 -63 873 7 
Q 581 78 456 150 
L 331 225 
L 319 244 
Q 447 719 469 903 
L 531 909 
Q 678 628 979 423 
Q 1281 219 1550 219 
z
" transform="scale(0.015625)"/>
       <path id="LinBiolinum-70" d="M 1038 1881 
L 1038 481 
Q 1281 194 1631 191 
Q 1875 191 2048 300 
Q 2222 409 2308 598 
Q 2394 788 2428 983 
Q 2463 1178 2463 1394 
Q 2463 2513 1806 2516 
Q 1616 2516 1378 2323 
Q 1141 2131 1038 1881 
z
M 1038 2253 
L 1050 2234 
Q 1428 2809 1913 2809 
Q 2425 2809 2726 2415 
Q 3028 2022 3028 1478 
Q 3028 794 2662 365 
Q 2297 -63 1672 -63 
Q 1300 -63 1038 78 
L 1038 -206 
Q 1038 -1031 1094 -1484 
L 1081 -1503 
Q 966 -1484 780 -1484 
Q 594 -1484 481 -1503 
L 469 -1484 
Q 525 -1056 525 -206 
L 525 1503 
Q 525 2388 469 2747 
L 481 2766 
Q 763 2741 997 2784 
Q 1034 2784 1038 2719 
L 1038 2253 
z
" transform="scale(0.015625)"/>
       <path id="LinBiolinum-69" d="M 611 3594 
Q 513 3694 513 3822 
Q 513 3950 611 4048 
Q 709 4147 837 4147 
Q 966 4147 1066 4048 
Q 1166 3950 1166 3822 
Q 1166 3694 1066 3594 
Q 966 3494 837 3494 
Q 709 3494 611 3594 
z
M 575 1503 
Q 575 2353 519 2747 
L 531 2766 
Q 806 2747 1088 2772 
Q 1125 2772 1136 2762 
Q 1147 2753 1147 2706 
Q 1091 2169 1088 1606 
L 1088 1153 
Q 1088 456 1147 0 
L 1131 -19 
Q 1016 0 831 0 
Q 647 0 531 -19 
L 519 0 
Q 575 434 575 1153 
L 575 1503 
z
" transform="scale(0.015625)"/>
       <path id="LinBiolinum-6e" d="M 2944 1153 
Q 2944 425 3003 0 
L 2988 -19 
Q 2872 0 2687 0 
Q 2503 0 2388 -19 
L 2375 0 
Q 2431 428 2431 1153 
L 2431 1778 
Q 2431 2156 2329 2290 
Q 2228 2425 1972 2425 
Q 1775 2425 1522 2297 
Q 1269 2169 1044 1900 
L 1044 1153 
Q 1044 409 1100 0 
L 1088 -19 
Q 972 0 787 0 
Q 603 0 488 -19 
L 475 0 
Q 531 391 531 1153 
L 531 1503 
Q 531 2388 475 2747 
L 488 2766 
Q 769 2741 1006 2784 
Q 1044 2784 1044 2719 
L 1044 2253 
L 1056 2234 
Q 1550 2809 2163 2809 
Q 2584 2809 2770 2559 
Q 2956 2309 2956 1797 
Q 2956 1694 2950 1475 
Q 2944 1256 2944 1153 
z
" transform="scale(0.015625)"/>
       <path id="LinBiolinum-6c" d="M 575 1281 
L 575 3084 
Q 575 4000 519 4319 
L 531 4341 
Q 819 4359 1088 4469 
Q 1144 4469 1147 4403 
Q 1091 3628 1088 3200 
L 1088 1281 
Q 1088 425 1147 0 
L 1131 -19 
Q 1016 0 831 0 
Q 647 0 531 -19 
L 519 0 
Q 575 409 575 1281 
z
" transform="scale(0.015625)"/>
       <path id="LinBiolinum-54" d="M 1453 2847 
Q 1453 3597 1403 3769 
Q 1019 3769 695 3747 
Q 372 3725 241 3703 
L 109 3681 
L 97 3706 
Q 116 3853 97 4128 
L 109 4147 
Q 263 4128 494 4128 
L 2963 4128 
Q 3194 4128 3347 4147 
L 3359 4128 
Q 3341 3853 3359 3706 
L 3347 3681 
Q 2913 3772 2053 3769 
Q 2003 3597 2003 2847 
L 2003 1281 
Q 2003 456 2069 0 
L 2053 -19 
Q 1938 0 1727 0 
Q 1516 0 1403 -19 
L 1388 0 
Q 1450 434 1453 1281 
L 1453 2847 
z
" transform="scale(0.015625)"/>
       <path id="LinBiolinum-61" d="M 1984 1441 
L 1441 1294 
Q 1088 1197 947 1040 
Q 806 884 806 653 
Q 806 500 937 381 
Q 1069 263 1281 263 
Q 1538 263 1869 513 
Q 1959 575 1959 678 
L 1984 1441 
z
M 1984 306 
L 1959 306 
Q 1703 88 1526 12 
Q 1350 -63 1088 -63 
Q 716 -63 502 109 
Q 288 281 288 628 
Q 288 953 572 1200 
Q 856 1447 1350 1556 
L 1947 1691 
Q 1991 1703 1991 1766 
Q 1991 1972 1945 2122 
Q 1900 2272 1842 2345 
Q 1784 2419 1689 2461 
Q 1594 2503 1530 2512 
Q 1466 2522 1375 2522 
Q 1009 2522 672 1978 
L 588 1984 
L 481 2413 
L 500 2438 
Q 941 2809 1441 2809 
Q 2497 2809 2497 1772 
Q 2497 1750 2487 1331 
Q 2478 913 2478 806 
Q 2478 403 2584 306 
Q 2638 259 2772 259 
Q 2850 259 2944 294 
L 2994 134 
Q 2806 -63 2484 -63 
Q 2303 -63 2170 31 
Q 2038 125 1984 306 
z
" transform="scale(0.015625)"/>
       <path id="LinBiolinum-76" d="M 1294 -19 
Q 744 1422 128 2766 
Q 231 2747 500 2747 
Q 738 2747 819 2766 
Q 850 2666 951 2342 
Q 1053 2019 1100 1872 
Q 1147 1725 1234 1467 
Q 1322 1209 1405 998 
Q 1488 788 1578 578 
L 1594 578 
Q 1725 856 1853 1223 
Q 1981 1591 2129 2053 
Q 2278 2516 2369 2766 
Q 2425 2747 2584 2747 
Q 2769 2747 2828 2766 
Q 2034 975 1684 -19 
Q 1628 0 1492 0 
Q 1356 0 1294 -19 
z
" transform="scale(0.015625)"/>
      </defs>
      <use xlink:href="#LinBiolinum-4e"/>
      <use xlink:href="#LinBiolinum-75" x="71.777344"/>
      <use xlink:href="#LinBiolinum-6d" x="125.439453"/>
      <use xlink:href="#LinBiolinum-62" x="206.103516"/>
      <use xlink:href="#LinBiolinum-65" x="256.494141"/>
      <use xlink:href="#LinBiolinum-72" x="301.757812"/>
      <use xlink:href="#LinBiolinum-20" x="337.255859"/>
      <use xlink:href="#LinBiolinum-6f" x="362.255859"/>
      <use xlink:href="#LinBiolinum-66" x="412.255859"/>
      <use xlink:href="#LinBiolinum-20" x="443.652344"/>
      <use xlink:href="#LinBiolinum-4e" x="468.652344"/>
      <use xlink:href="#LinBiolinum-6f" x="540.429688"/>
      <use xlink:href="#LinBiolinum-64" x="590.429688"/>
      <use xlink:href="#LinBiolinum-65" x="643.408203"/>
      <use xlink:href="#LinBiolinum-73" x="688.671875"/>
      <use xlink:href="#LinBiolinum-20" x="728.271484"/>
      <use xlink:href="#LinBiolinum-41" x="753.271484"/>
      <use xlink:href="#LinBiolinum-63" x="816.162109"/>
      <use xlink:href="#LinBiolinum-63" x="859.033203"/>
      <use xlink:href="#LinBiolinum-65" x="901.904297"/>
      <use xlink:href="#LinBiolinum-73" x="947.167969"/>
      <use xlink:href="#LinBiolinum-73" x="986.767578"/>
      <use xlink:href="#LinBiolinum-65" x="1026.367188"/>
      <use xlink:href="#LinBiolinum-64" x="1071.630859"/>
      <use xlink:href="#LinBiolinum-20" x="1124.609375"/>
      <use xlink:href="#LinBiolinum-62" x="1149.609375"/>
      <use xlink:href="#LinBiolinum-79" x="1200"/>
      <use xlink:href="#LinBiolinum-20" x="1250.585938"/>
      <use xlink:href="#LinBiolinum-53" x="1275.585938"/>
      <use xlink:href="#LinBiolinum-70" x="1326.171875"/>
      <use xlink:href="#LinBiolinum-69" x="1378.466797"/>
      <use xlink:href="#LinBiolinum-6e" x="1404.443359"/>
      <use xlink:href="#LinBiolinum-65" x="1458.300781"/>
      <use xlink:href="#LinBiolinum-6c" x="1503.564453"/>
      <use xlink:href="#LinBiolinum-65" x="1528.759766"/>
      <use xlink:href="#LinBiolinum-73" x="1574.023438"/>
      <use xlink:href="#LinBiolinum-73" x="1613.623047"/>
      <use xlink:href="#LinBiolinum-20" x="1653.222656"/>
      <use xlink:href="#LinBiolinum-54" x="1678.222656"/>
      <use xlink:href="#LinBiolinum-72" x="1732.177734"/>
      <use xlink:href="#LinBiolinum-61" x="1767.675781"/>
      <use xlink:href="#LinBiolinum-76" x="1815.771484"/>
      <use xlink:href="#LinBiolinum-65" x="1861.962891"/>
      <use xlink:href="#LinBiolinum-72" x="1907.226562"/>
      <use xlink:href="#LinBiolinum-73" x="1942.724609"/>
      <use xlink:href="#LinBiolinum-61" x="1982.324219"/>
      <use xlink:href="#LinBiolinum-6c" x="2030.419922"/>
     </g>
    </g>
   </g>
   <g id="matplotlib.axis_2">
    <g id="ytick_1">
     <g id="line2d_43">
      <defs>
       <path id="mf8ed517992" d="M 0 0 
L -8 0 
" style="stroke: #000000"/>
      </defs>
      <g>
       <use xlink:href="#mf8ed517992" x="36.828906" y="284.4" style="stroke: #000000"/>
      </g>
     </g>
     <g id="text_7">
      <!-- 0 -->
      <g transform="translate(19.285938 288.938828) scale(0.13 -0.13)">
       <use xlink:href="#LinBiolinum-30"/>
      </g>
     </g>
    </g>
    <g id="ytick_2">
     <g id="line2d_44">
      <g>
       <use xlink:href="#mf8ed517992" x="36.828906" y="239.116981" style="stroke: #000000"/>
      </g>
     </g>
     <g id="text_8">
      <!-- 100 -->
      <g transform="translate(7.2 243.655809) scale(0.13 -0.13)">
       <use xlink:href="#LinBiolinum-31"/>
       <use xlink:href="#LinBiolinum-30" x="46.484375"/>
       <use xlink:href="#LinBiolinum-30" x="92.96875"/>
      </g>
     </g>
    </g>
    <g id="ytick_3">
     <g id="line2d_45">
      <g>
       <use xlink:href="#mf8ed517992" x="36.828906" y="193.833962" style="stroke: #000000"/>
      </g>
     </g>
     <g id="text_9">
      <!-- 200 -->
      <g transform="translate(7.2 198.37279) scale(0.13 -0.13)">
       <defs>
        <path id="LinBiolinum-32" d="M 1422 3541 
Q 1116 3541 928 3391 
Q 869 3344 823 3284 
Q 778 3225 761 3195 
Q 744 3166 701 3066 
Q 659 2966 647 2938 
L 563 2944 
L 422 3384 
Q 569 3578 853 3740 
Q 1138 3903 1525 3903 
Q 2050 3903 2348 3618 
Q 2647 3334 2647 2870 
Q 2647 2406 2184 1778 
Q 1988 1513 1786 1281 
Q 1584 1050 1471 937 
Q 1359 825 1147 622 
Q 1034 513 1034 447 
Q 1034 431 1044 416 
Q 1219 428 1566 428 
Q 2159 428 2738 481 
Q 2706 353 2703 178 
Q 2703 103 2725 -31 
Q 1963 0 1613 0 
Q 1581 0 400 -31 
Q 334 75 338 219 
Q 338 263 347 300 
Q 359 313 568 508 
Q 778 703 892 817 
Q 1006 931 1204 1134 
Q 1403 1338 1564 1534 
Q 1725 1731 1853 1925 
Q 2097 2291 2097 2784 
Q 2097 3109 1890 3325 
Q 1684 3541 1422 3541 
z
" transform="scale(0.015625)"/>
       </defs>
       <use xlink:href="#LinBiolinum-32"/>
       <use xlink:href="#LinBiolinum-30" x="46.484375"/>
       <use xlink:href="#LinBiolinum-30" x="92.96875"/>
      </g>
     </g>
    </g>
    <g id="ytick_4">
     <g id="line2d_46">
      <g>
       <use xlink:href="#mf8ed517992" x="36.828906" y="148.550943" style="stroke: #000000"/>
      </g>
     </g>
     <g id="text_10">
      <!-- 300 -->
      <g transform="translate(7.2 153.089772) scale(0.13 -0.13)">
       <defs>
        <path id="LinBiolinum-33" d="M 1338 184 
Q 1447 184 1572 223 
Q 1697 263 1840 352 
Q 1984 441 2079 636 
Q 2175 831 2175 1100 
Q 2175 1503 1925 1716 
Q 1675 1922 1300 1919 
Q 1109 1919 1031 1906 
L 1031 2188 
Q 1166 2169 1269 2169 
Q 1616 2169 1797 2350 
Q 2041 2581 2041 2975 
Q 2041 3269 1875 3461 
Q 1709 3653 1509 3653 
Q 1228 3653 1059 3522 
Q 891 3391 769 3109 
L 672 3116 
L 538 3525 
L 556 3547 
Q 966 3906 1569 3903 
Q 2038 3903 2317 3664 
Q 2597 3425 2597 3072 
Q 2597 2700 2361 2428 
Q 2125 2156 1844 2094 
L 1844 2059 
Q 2222 2028 2473 1775 
Q 2725 1522 2725 1153 
Q 2725 756 2483 467 
Q 2241 178 1933 57 
Q 1625 -63 1325 -63 
Q 738 -63 372 244 
L 353 263 
L 494 744 
L 588 750 
Q 678 566 714 497 
Q 750 428 836 336 
Q 922 244 1037 214 
Q 1153 184 1338 184 
z
" transform="scale(0.015625)"/>
       </defs>
       <use xlink:href="#LinBiolinum-33"/>
       <use xlink:href="#LinBiolinum-30" x="46.484375"/>
       <use xlink:href="#LinBiolinum-30" x="92.96875"/>
      </g>
     </g>
    </g>
    <g id="ytick_5">
     <g id="line2d_47">
      <g>
       <use xlink:href="#mf8ed517992" x="36.828906" y="103.267925" style="stroke: #000000"/>
      </g>
     </g>
     <g id="text_11">
      <!-- 400 -->
      <g transform="translate(7.2 107.806753) scale(0.13 -0.13)">
       <defs>
        <path id="LinBiolinum-34" d="M 1831 947 
L 513 947 
Q 134 947 134 1075 
Q 134 1178 219 1325 
Q 469 1747 1019 2592 
Q 1569 3438 1863 3841 
L 1888 3866 
Q 2003 3841 2106 3841 
Q 2156 3841 2242 3853 
Q 2328 3866 2356 3866 
Q 2369 3866 2369 3841 
Q 2331 3488 2328 2894 
L 2328 1269 
L 2741 1269 
Q 2838 1269 2834 1166 
Q 2834 1109 2773 1028 
Q 2713 947 2650 947 
L 2328 947 
Q 2328 556 2369 0 
Q 2369 -19 2356 -19 
Q 2331 -19 2237 -9 
Q 2144 0 2088 0 
L 1784 -19 
L 1778 0 
Q 1831 434 1831 947 
z
M 1831 3278 
L 531 1269 
L 1831 1269 
L 1831 3278 
z
" transform="scale(0.015625)"/>
       </defs>
       <use xlink:href="#LinBiolinum-34"/>
       <use xlink:href="#LinBiolinum-30" x="46.484375"/>
       <use xlink:href="#LinBiolinum-30" x="92.96875"/>
      </g>
     </g>
    </g>
    <g id="ytick_6">
     <g id="line2d_48">
      <g>
       <use xlink:href="#mf8ed517992" x="36.828906" y="57.984906" style="stroke: #000000"/>
      </g>
     </g>
     <g id="text_12">
      <!-- 500 -->
      <g transform="translate(7.2 62.523734) scale(0.13 -0.13)">
       <defs>
        <path id="LinBiolinum-35" d="M 1294 -63 
Q 738 -63 325 294 
L 300 313 
L 441 825 
L 531 831 
Q 550 800 604 697 
Q 659 594 675 566 
Q 691 538 742 464 
Q 794 391 819 369 
Q 844 347 901 298 
Q 959 250 1014 237 
Q 1069 225 1142 208 
Q 1216 191 1306 191 
Q 1631 191 1832 450 
Q 2034 709 2034 1147 
Q 2034 1653 1829 1914 
Q 1625 2175 1300 2175 
Q 1000 2175 506 1978 
L 459 1994 
L 666 3878 
Q 1100 3841 1394 3841 
Q 1925 3841 2444 3903 
L 2491 3884 
L 2388 3450 
Q 2075 3413 1716 3413 
Q 1331 3413 903 3469 
L 769 2338 
Q 1031 2434 1466 2431 
Q 1984 2431 2290 2086 
Q 2597 1741 2597 1253 
Q 2597 684 2230 310 
Q 1863 -63 1294 -63 
z
" transform="scale(0.015625)"/>
       </defs>
       <use xlink:href="#LinBiolinum-35"/>
       <use xlink:href="#LinBiolinum-30" x="46.484375"/>
       <use xlink:href="#LinBiolinum-30" x="92.96875"/>
      </g>
     </g>
    </g>
    <g id="ytick_7">
     <g id="line2d_49">
      <g>
       <use xlink:href="#mf8ed517992" x="36.828906" y="12.701887" style="stroke: #000000"/>
      </g>
     </g>
     <g id="text_13">
      <!-- 600 -->
      <g transform="translate(7.2 17.240715) scale(0.13 -0.13)">
       <defs>
        <path id="LinBiolinum-36" d="M 813 1772 
Q 806 1709 806 1538 
Q 806 1134 882 848 
Q 959 563 1093 425 
Q 1228 288 1356 230 
Q 1484 172 1631 172 
Q 2200 172 2203 1106 
Q 2203 1247 2173 1387 
Q 2144 1528 2073 1686 
Q 2003 1844 1847 1939 
Q 1691 2034 1459 2034 
Q 1069 2034 813 1772 
z
M 2559 3731 
Q 1850 3659 1434 3256 
Q 928 2763 825 1959 
Q 941 2100 1167 2195 
Q 1394 2291 1594 2291 
Q 1947 2291 2195 2159 
Q 2444 2028 2556 1829 
Q 2669 1631 2717 1465 
Q 2766 1300 2766 1153 
Q 2766 963 2705 766 
Q 2644 569 2516 376 
Q 2388 184 2141 64 
Q 1894 -56 1563 -56 
Q 1350 -56 1151 11 
Q 953 78 748 240 
Q 544 403 419 742 
Q 294 1081 294 1556 
Q 294 2569 978 3250 
Q 1297 3575 1665 3726 
Q 2034 3878 2541 3909 
L 2559 3731 
z
" transform="scale(0.015625)"/>
       </defs>
       <use xlink:href="#LinBiolinum-36"/>
       <use xlink:href="#LinBiolinum-30" x="46.484375"/>
       <use xlink:href="#LinBiolinum-30" x="92.96875"/>
      </g>
     </g>
    </g>
   </g>
   <g id="patch_12">
    <path d="M 36.828906 284.4 
L 36.828906 7.2 
" style="fill: none; stroke: #000000; stroke-width: 0.8; stroke-linejoin: miter; stroke-linecap: square"/>
   </g>
   <g id="patch_13">
    <path d="M 315.828906 284.4 
L 315.828906 7.2 
" style="fill: none; stroke: #000000; stroke-width: 0.8; stroke-linejoin: miter; stroke-linecap: square"/>
   </g>
   <g id="patch_14">
    <path d="M 36.828906 284.4 
L 315.828906 284.4 
" style="fill: none; stroke: #000000; stroke-width: 0.8; stroke-linejoin: miter; stroke-linecap: square"/>
   </g>
   <g id="patch_15">
    <path d="M 36.828906 7.2 
L 315.828906 7.2 
" style="fill: none; stroke: #000000; stroke-width: 0.8; stroke-linejoin: miter; stroke-linecap: square"/>
   </g>
  </g>
 </g>
 <defs>
  <clipPath id="p87991b15eb">
   <rect x="36.828906" y="7.2" width="279" height="277.2"/>
  </clipPath>
 </defs>
</svg>
